<svg xmlns="http://www.w3.org/2000/svg" width="63" height="79" viewBox="0 0 63 79">
    <g fill="none" fill-rule="evenodd" transform="translate(7)">
        <path fill="#9FDAE4" d="M34.779 33.862c-5.874 4.701-2.165 6.284-7.616 11.294-5.452 5.01-17.132 9.96-13.463 21.028 3.67 11.07 21.803 12.907 31.723 4.848 9.921-8.058 11.423-20.028 7.974-30.746-3.45-10.719-12.744-11.126-18.618-6.424z"/>
        <circle cx="21.5" cy="49.5" r="15.5" stroke="#000"/>
        <circle cx="21.5" cy="49.5" r="13.5" stroke="#000"/>
        <path fill="#D8D8D8" stroke="#000" d="M15.5 32.5h13v3h-13z"/>
        <path stroke="#000" d="M7 20.23L12.943 12h17.854L37 20.23 28.341 32h-13.1zM7 20.5h30"/>
        <path stroke="#000" d="M13 12l3.686 8 5.28-7.327L26.302 20 31 12M16.5 20.545l2.454 11.29M26.25 20.19L24.5 31.834"/>
        <path stroke="#000" stroke-width="2" d="M0 25l4.286-1.5M43.286 25.5L39 24M4.286 6.756l4.61 3.083M39.771 6.756l-3.688 3.083M22.281 0v5.359"/>
    </g>
</svg>
