<svg xmlns="http://www.w3.org/2000/svg" width="66" height="76" viewBox="0 0 66 76">
    <g fill="none" fill-rule="evenodd">
        <path fill="#9FDAE4" d="M42.705 34.798c-5.584 4.597-2.058 6.145-7.24 11.043-5.184 4.899-16.287 9.739-12.8 20.562 3.489 10.822 20.729 12.62 30.16 4.74 9.432-7.88 10.86-19.583 7.58-30.064-3.28-10.48-12.115-10.878-17.7-6.281z"/>
        <path stroke="#000" d="M12.988 30.381c-1.19 1.39-3.284 1.253-4.42 0-.757-.835-.757-2.864 0-6.085.212-.86 1.204-1.514 2.978-1.961 1.773-.447 10.888-.447 27.343 0 1.464 0 2.673.961 3.629 2.884 1.433 2.884 2.535 11.334 3.166 17.022.421 3.792.421 7.628 0 11.507H27.126c-1.32 5.501-3.21 8.252-5.67 8.252s-3.766-1.564-3.919-4.691a87.393 87.393 0 0 0 0-16.294 89.85 89.85 0 0 0-3.027-16.164c-.493-.605-1-.482-1.522.368-.782 1.275 1.191 3.772 0 5.162z"/>
        <path stroke="#000" d="M25.657 56c-.214 1.47-.508 2.629-.883 3.475-.375.847-.966 1.689-1.774 2.525h23.39c1.18-.539 2.11-1.38 2.79-2.525.68-1.144.937-2.303.772-3.475H25.657z"/>
        <path stroke="#000" stroke-linecap="square" d="M20.875 31h19.95M22.875 37h19.95M22.875 41h19.95M22.875 48h19.95"/>
        <g stroke="#000" transform="translate(30 3)">
            <path fill="#FFF" d="M6.926 30.02c3.089-1.784 5.7-3.022 7.833-3.713a19.05 19.05 0 0 1 6.51-.934l2.77-13.17-5.378-4.357-11.165 6.37c.596 1.716.843 3.985.741 6.808-.101 2.823-.539 5.821-1.311 8.996z"/>
            <path stroke-linecap="square" d="M6.895 28.769l8.284-8.62"/>
            <ellipse cx="15.866" cy="18.128" fill="#D8D8D8" rx="2.414" ry="2.462" transform="rotate(-143 15.866 18.128)"/>
            <path fill="#D8D8D8" d="M25.323 13.554l4.136-5.9-7.974-6.46-4.136 5.9 7.974 6.46z"/>
        </g>
    </g>
</svg>
