<svg xmlns="http://www.w3.org/2000/svg" width="62" height="77" viewBox="0 0 62 77">
    <g fill="none" fill-rule="evenodd" transform="translate(7 3)">
        <path fill="#9FDAE4" d="M30.188 32.734c-5.445 4.493-2.007 6.006-7.06 10.793-5.054 4.787-15.88 9.517-12.479 20.094 3.4 10.577 20.21 12.333 29.405 4.632 9.196-7.7 10.589-19.138 7.391-29.38-3.197-10.242-11.812-10.63-17.257-6.139z"/>
        <rect width="29" height="56" x=".5" y="8.5" stroke="#000" rx="5"/>
        <path stroke="#000" d="M2.5 14.5h25v42h-25z"/>
        <circle cx="15.5" cy="60.5" r="2.5" stroke="#000"/>
        <rect width="11" height="1" x="9.5" y="12.5" stroke="#000" rx=".5"/>
        <path stroke="#000" d="M6.5 19.5h20v17h-20z"/>
        <path stroke="#000" stroke-linecap="square" d="M7 44h19M7 39h19M7 49h19"/>
        <g stroke="#000" transform="translate(15)">
            <path fill="#FFF" d="M6.926 29.187c3.089-1.735 5.7-2.939 7.833-3.61a19.554 19.554 0 0 1 6.51-.908l2.77-12.805-5.378-4.235L7.496 13.82c.596 1.668.843 3.875.741 6.619-.101 2.744-.539 5.66-1.311 8.747z"/>
            <path stroke-linecap="square" d="M6.895 27.97l8.284-8.38"/>
            <ellipse cx="15.866" cy="17.624" fill="#D8D8D8" rx="2.387" ry="2.417" transform="rotate(-143 15.866 17.624)"/>
            <path fill="#D8D8D8" d="M25.324 13.168l4.126-5.723-7.967-6.274-4.125 5.722 7.966 6.275z"/>
        </g>
    </g>
</svg>
